<?xml version="1.0" encoding="utf-8"?>
<!-- Generator: Adobe Illustrator 24.0.0, SVG Export Plug-In . SVG Version: 6.00 Build 0)  -->
<svg version="1.1" id="Layer_1" xmlns="http://www.w3.org/2000/svg" xmlns:xlink="http://www.w3.org/1999/xlink" x="0px" y="0px"
	 viewBox="0 0 287.93 469.2" style="enable-background:new 0 0 287.93 469.2;" xml:space="preserve">
<style type="text/css">
	.st0{fill:#FFFFFF;}
	.st1{fill:#C5A56E;}
	.st2{fill:#E6D0B1;}
	.st3{fill:#200C11;}
	.st4{opacity:0.15;fill:#9C2524;}
	.st5{opacity:0.75;fill:#7D6549;}
	.st6{fill:#9C2524;}
	.st7{fill:#711011;}
	.st8{opacity:0.75;fill:#41111B;}
	.st9{fill:#41111B;}
	.st10{fill:#9F9595;}
	.st11{fill:#474242;}
	.st12{fill:#E5D3D3;}
	.st13{opacity:0.75;fill:#2A1016;}
</style>
<g>
	<g>
		<path class="st0" d="M108.29,251.41v-3.41h9.59v3.41h-3.14v19.17h-3.32v-19.17H108.29z"/>
		<path class="st0" d="M147.16,260.75h-2.58v9.83h-3.32c0,0,0-22.43,0-22.59h3.32v9.34h2.58v-9.34h3.32v22.59h-3.32V260.75z"/>
		<path class="st0" d="M175.02,247.99h7.6v3.41h-4.28v5.93h3.08v3.63h-3.08v6.21h4.28v3.41h-7.6V247.99z"/>
	</g>
	<g>
		<path class="st1" d="M87.42,347.78v11.23c0,0,0.12,17.68-16.01,17.68S55.4,359.01,55.4,359.01v-48.15c0,0-0.11-17.68,16.02-17.68
			s16.01,17.68,16.01,17.68v11.23H76.19v-11.23c0,0,0.45-6-4.56-6c-4.23,0-4.23,6-4.23,6v48.15c0,0,0,6,4.23,6c5.01,0,4.56-6,4.56-6
			v-11.23H87.42z"/>
		<path class="st1" d="M97.98,375.81l12.34-81.74H125l12.34,81.74h-11.67l-2.23-16.68h-11.57l-2.23,16.68H97.98z M118.32,320.65
			l-0.33-2.11h-0.67l-0.34,2.11l-3.44,25.8h8.23L118.32,320.65z"/>
		<path class="st1" d="M171.03,375.81l-6.22-34.47h-3.22v34.47h-12.01v-81.74h12.01c14.23,0,20.46,8.23,20.46,23.58
			c0,8.12-2.11,15.46-6.68,18.57l7.67,39.59H171.03z M161.58,305.97v24.24c3.33,0,8.89-0.44,8.89-12.11
			C170.47,306.41,164.91,305.97,161.58,305.97z"/>
		<path class="st1" d="M205.83,375.81h-9.45v-81.74h9.45c22.24,0.12,23.91,8.9,23.91,40.93
			C229.74,366.91,228.07,375.69,205.83,375.81z M208.39,363.8c8.45,0,9.01-2.12,8.89-28.92c0.12-26.68-0.44-28.8-8.89-28.8V363.8z"
			/>
	</g>
	<g>
		<path class="st0" d="M53.28,409.81v-10.56h29.69v10.56h-9.71v59.39H62.98v-59.39H53.28z"/>
		<path class="st0" d="M87.73,469.2l10.57-69.95h12.56l10.57,69.95h-9.99l-1.9-14.28h-9.9l-1.91,14.28H87.73z M105.15,421.99
			l-0.29-1.8h-0.57l-0.29,1.8l-2.94,22.08h7.04L105.15,421.99z"/>
		<path class="st0" d="M131.9,469.2v-69.95c0,0,5.13,0,9.04,0c12.28,0,18.75,4.66,18.75,18.56c0,6.47-1.43,10.19-6.38,14.46
			c0,0,7.14,3.23,7.14,17.13c0,10.28-3.62,19.32-15.89,19.8H131.9z M142.17,409.43v18.65c1.91,0,7.62,0.29,7.62-9.32
			C149.78,409.15,144.08,409.43,142.17,409.43z M142.17,437.51v21.5c1.91,0,7.62,0.76,7.62-10.75
			C149.78,436.74,144.08,437.51,142.17,437.51z"/>
		<path class="st0" d="M172.25,399.25h10.28v60.44h13.61v9.51h-23.89V399.25z"/>
		<path class="st0" d="M206.04,399.25h23.5v10.56h-13.23v18.37h9.51v11.23h-9.51v19.22h13.23v10.57h-23.5V399.25z"/>
	</g>
</g>
<g>
	<g>
		<circle class="st2" cx="143.1" cy="113.71" r="107.58"/>
		<path class="st3" d="M143.09,226.45c-62.16,0-112.74-50.57-112.74-112.74S80.93,0.98,143.09,0.98s112.74,50.57,112.74,112.74
			S205.26,226.45,143.09,226.45z M143.09,11.29c-56.48,0-102.43,45.95-102.43,102.43s45.95,102.43,102.43,102.43
			s102.43-45.95,102.43-102.43S199.57,11.29,143.09,11.29z"/>
	</g>
	<g>
		<path class="st4" d="M228.94,71.1c-0.62,0-1.22-0.34-1.53-0.93C214.84,45.89,192.46,28.21,166,21.68
			c-0.92-0.23-1.48-1.16-1.26-2.08c0.23-0.92,1.14-1.49,2.08-1.26c27.42,6.77,50.61,25.08,63.64,50.25
			c0.44,0.84,0.11,1.88-0.74,2.32C229.48,71.04,229.21,71.1,228.94,71.1z"/>
		<path class="st4" d="M47.18,124.49c-0.88,0-1.62-0.67-1.71-1.56c-0.29-3.07-0.43-6.18-0.43-9.25c0-39.02,23.1-74.34,58.85-89.99
			c0.88-0.37,1.89,0.01,2.26,0.89c0.38,0.87-0.02,1.88-0.89,2.26c-34.5,15.1-56.79,49.18-56.79,86.84c0,2.97,0.14,5.97,0.42,8.94
			c0.09,0.94-0.61,1.78-1.55,1.87C47.29,124.49,47.23,124.49,47.18,124.49z"/>
		<path class="st4" d="M143.23,211.87c-0.95,0-1.72-0.77-1.72-1.72s0.77-1.72,1.72-1.72c34.74,0,66.66-18.98,83.28-49.53
			c0.46-0.83,1.5-1.14,2.33-0.69c0.83,0.45,1.14,1.5,0.69,2.33C212.3,192.2,179.23,211.87,143.23,211.87z"/>
	</g>
	<circle class="st4" cx="143.23" cy="115.51" r="80.96"/>
	<path class="st1" d="M191.95,48.48c0,0,21.1,15.86,24.11,19.61c0,0-7.46,5.84-16.41,9.3s-12.89,4.73-12.89,4.73
		s-3.39-8.52-5.78-10.51c-2.39-2,4.24-5.33,5.33-6.65c1.09-1.31,3.26-5.86,4.57-8.59C192.19,53.64,191.95,48.48,191.95,48.48z"/>
	<path class="st5" d="M200.07,72.85c-6.76,0-11.78-1.3-12.13-1.39c-0.64-0.17-1.02-0.83-0.85-1.47c0.17-0.64,0.82-1.04,1.47-0.86
		c0.13,0.04,13.26,3.41,25.41-0.93c0.61-0.21,1.31,0.1,1.54,0.73c0.22,0.62-0.1,1.31-0.73,1.54
		C209.68,72.29,204.51,72.85,200.07,72.85z"/>
	<path d="M184.28,68.18c-1.31,1.31-0.34,3.09-0.34,3.09c0.87,0.98,2.06,2.34,3.3,4.26c2.82,4.47,1.24,13.68,1.24,19.04
		c0.07,5.36-1.86,12.51-1.86,12.51s-2.61-8.25-2.82-13.33c-0.14-5.02-6.74-13.27-13.33-21.86c-6.67-8.52-20.28-7.15-18.35-8.66
		c1.92-1.51,8.73-7.35,11.75-14.85c3.02-7.49,2.47-18.63,2.47-18.63v-0.48l26.74,18.15c0,0,2.54-0.69-0.28,9.28
		c-1.51,5.36-4.54,8.66-7.08,10.52c-0.2,0.14-0.34,0.2-0.55,0.34C184.76,67.77,184.49,67.98,184.28,68.18z"/>
	<path class="st6" d="M57.57,123.33l32.3-33.05c0,0,20.39-17.59,24.11-33.96c3.71-16.37,4.62-23.43,2.8-31.76
		s-9.48-22.67-9.48-22.67s51.34,23.48,54.91,25.51c3.57,2.04,6.22,1.63,4.12,9.43c-2.1,7.81-2.4,15.39-5.51,19.03
		s-10.12,7.98-10.12,7.98s15.79,1.58,21.29,10.03s11.78,16.46,12.48,22.85c0.7,6.39,2.1,17.89,2.12,18.12
		c0.01,0.23-0.96,10.92-1.17,12.06c-0.21,1.14-8.3,32.72-13.07,40.34c-4.78,7.62-13.54,19.04-16.97,22.97
		c-3.42,3.93-18.68,15.32-29.93,19.59c-11.25,4.27-22.62,4.5-22.62,4.5s-28.71-16.08-34.63-23.36s-27.7-46.09-27.7-46.09
		L57.57,123.33z"/>
	<path class="st7" d="M186,128.15c0,0,10.47-5.58,19-6.79c8.52-1.21,73.04-0.69,73.04-0.69s-20.57,4.09-23.4,5.84
		c-2.83,1.75-9.96,2.96-11.78,6.22c-1.81,3.26-17.1,18.23-17.1,18.23s-17.66,14.62-25.77,19.07c-8.12,4.45-27.94,12.73-31.27,13.67
		c-3.33,0.94-8.56,1.29-8.56,1.29s15.24-19.58,18.88-32.7C182.67,139.18,186,128.15,186,128.15z"/>
	<path d="M186.73,120.41c-0.01,0-0.01,0-0.02,0c-0.95-0.01-1.71-0.79-1.7-1.74c0-0.52,0.05-52.02-35.44-52.51
		c-0.84-0.01-1.67-0.71-1.8-1.54c-0.13-0.84,0.42-1.7,1.24-1.95c2.59-0.83,15.62-6.36,15.62-32.91c0-0.95,0.77-1.72,1.72-1.72
		s1.72,0.77,1.72,1.72c0,20.32-7.41,29.47-12.86,33.45c33.32,5.46,33.25,54.97,33.25,55.5
		C188.44,119.65,187.67,120.41,186.73,120.41z"/>
	<path class="st8" d="M143.09,27.78c-0.21,0-0.42-0.05-0.61-0.16c-8.12-4.75-28.38-12.82-28.58-12.9c-0.62-0.25-0.92-0.94-0.67-1.56
		c0.24-0.62,0.95-0.91,1.56-0.67c0.84,0.33,20.64,8.22,28.91,13.06c0.57,0.34,0.77,1.07,0.43,1.64
		C143.91,27.57,143.51,27.78,143.09,27.78z"/>
	<path class="st8" d="M134.2,33.21c-0.21,0-0.42-0.05-0.61-0.16c-4.99-2.92-17.51-7.91-17.63-7.96c-0.62-0.25-0.92-0.94-0.67-1.56
		c0.25-0.62,0.95-0.91,1.56-0.67c0.52,0.21,12.81,5.1,17.96,8.12c0.57,0.34,0.77,1.07,0.43,1.64C135.02,33,134.61,33.21,134.2,33.21
		z"/>
	<path class="st3" d="M159.16,188.72c-1.18,0-2.25-0.82-2.51-2.03c-0.31-1.39,0.58-2.77,1.97-3.07
		c41.24-8.99,65.95-34.39,79.23-48.04c3.07-3.16,5.5-5.65,7.36-7.1c2.7-2.1,6.68-3.84,11.01-5.24h-41.07
		c-20.75,0-28.22,7.91-28.29,7.99c-0.95,1.05-2.58,1.14-3.63,0.19c-1.05-0.94-1.16-2.55-0.22-3.61c0.35-0.4,8.81-9.72,32.15-9.72
		h66.51c1.37,0,2.5,1.07,2.57,2.44c0.07,1.37-0.94,2.55-2.3,2.7c-0.25,0.03-25.15,2.78-33.57,9.32c-1.58,1.23-3.89,3.61-6.83,6.63
		c-12.68,13.04-39.07,40.16-81.82,49.48C159.52,188.7,159.34,188.72,159.16,188.72z"/>
	<path class="st0" d="M184.06,55.48c0.08,3.7-2.8,5.21-6,3.91c-2.81-1.14-5-0.87-5-3.91c0-3.04,2.46-5.5,5.5-5.5
		C181.6,49.98,183.99,52.45,184.06,55.48z"/>
	<path class="st9" d="M42.67,144.7c-0.59,0-1.19-0.2-1.67-0.62c-1.08-0.93-1.21-2.55-0.29-3.63c0.28-0.32,27.7-32.36,50.15-54.81
		c42.42-42.43,16.01-79.96,14.86-81.53c-0.66-0.91-0.65-2.14,0.01-3.04c0.66-0.9,1.82-1.29,2.9-0.92
		c0.38,0.13,38.14,12.95,73.27,36.24c1.19,0.79,1.51,2.39,0.72,3.57c-0.79,1.18-2.39,1.51-3.57,0.72
		c-25.96-17.2-53.4-28.61-65.58-33.27c6.45,13.49,16.27,46.65-18.96,81.88c-22.31,22.31-49.6,54.2-49.87,54.52
		C44.12,144.39,43.4,144.7,42.67,144.7z"/>
	<path class="st9" d="M106.78,217.59c-1.22,0-2.31-0.87-2.53-2.12c-0.25-1.4,0.68-2.74,2.08-3c57.05-10.3,74.15-59.55,78.46-99.04
		c0.15-1.42,1.44-2.52,2.84-2.28c1.42,0.15,2.44,1.43,2.28,2.84c-3.68,33.76-19.31,92.11-82.66,103.56
		C107.08,217.58,106.93,217.59,106.78,217.59z"/>
	<g>
		<g>
			<path class="st10" d="M280.7,108.42h-71.76v0c0-18.56,15.04-33.6,33.6-33.6h4.57C265.66,74.83,280.7,89.87,280.7,108.42
				L280.7,108.42z"/>
			<path class="st11" d="M247.11,74.83c18.56,0,33.6,15.04,33.6,33.6h-71.76c0-18.56,15.04-33.6,33.6-33.6H247.11 M247.11,71.39
				h-4.57c-20.42,0-37.03,16.61-37.03,37.03v3.44h3.44h71.76h3.44v-3.44C284.14,88,267.53,71.39,247.11,71.39L247.11,71.39z"/>
		</g>
		<path class="st12" d="M272.92,98.45c-0.45,0-0.88-0.26-1.09-0.69c-0.73-1.55-1.6-3.04-2.58-4.43c-0.38-0.54-0.25-1.3,0.29-1.68
			c0.53-0.38,1.29-0.26,1.68,0.29c1.06,1.51,2,3.12,2.79,4.79c0.29,0.6,0.03,1.32-0.57,1.6C273.26,98.41,273.09,98.45,272.92,98.45z
			"/>
		<path class="st12" d="M265.84,88.85c-0.29,0-0.58-0.1-0.81-0.31c-5.42-4.96-12.44-7.69-19.77-7.69c-0.66,0-1.2-0.54-1.2-1.2
			c0-0.66,0.54-1.2,1.2-1.2c7.93,0,15.53,2.95,21.39,8.31c0.49,0.45,0.52,1.21,0.08,1.7C266.49,88.72,266.17,88.85,265.84,88.85z"/>
		<g>
			<path class="st10" d="M280.95,115.51h-72.26c-1.96,0-3.54-1.59-3.54-3.54v0c0-1.96,1.59-3.54,3.54-3.54h72.26
				c1.96,0,3.54,1.59,3.54,3.54v0C284.49,113.93,282.91,115.51,280.95,115.51z"/>
			<path class="st11" d="M280.95,108.42c1.96,0,3.54,1.59,3.54,3.54c0,1.96-1.59,3.54-3.54,3.54h-72.26c-1.96,0-3.54-1.59-3.54-3.54
				c0-1.96,1.59-3.54,3.54-3.54H280.95 M280.95,104.99h-72.26c-3.85,0-6.98,3.13-6.98,6.98s3.13,6.98,6.98,6.98h72.26
				c3.85,0,6.98-3.13,6.98-6.98S284.8,104.99,280.95,104.99L280.95,104.99z"/>
		</g>
		<g>
			<path class="st10" d="M247.36,71.4h-5.08c-1.43,0-2.59-1.16-2.59-2.59v0c0-1.43,1.16-2.59,2.59-2.59h5.08
				c1.43,0,2.59,1.16,2.59,2.59v0C249.95,70.24,248.79,71.4,247.36,71.4z"/>
			<path class="st11" d="M247.36,66.22c1.43,0,2.59,1.16,2.59,2.59c0,1.43-1.16,2.59-2.59,2.59h-5.08c-1.43,0-2.59-1.16-2.59-2.59
				c0-1.43,1.16-2.59,2.59-2.59H247.36 M247.36,62.78h-5.08c-3.32,0-6.03,2.7-6.03,6.03s2.7,6.03,6.03,6.03h5.08
				c3.32,0,6.03-2.7,6.03-6.03S250.69,62.78,247.36,62.78L247.36,62.78z"/>
		</g>
	</g>
	<path d="M186.36,123.94c-0.13,0-0.26-0.01-0.39-0.03c-1.41-0.21-2.38-1.52-2.16-2.93c3.22-21.38,1.8-38.25,1.79-38.42
		c-0.1-1.2,0.64-2.32,1.79-2.68c12.72-4.03,21.16-9.43,24.86-12.1c-12.45-12.99-29.09-25.47-49.5-37.13
		c-1.24-0.7-1.66-2.28-0.96-3.52c0.7-1.24,2.27-1.67,3.52-0.96c21.94,12.53,39.66,26.04,52.66,40.16c0.47,0.51,0.71,1.19,0.68,1.88
		c-0.04,0.69-0.35,1.35-0.88,1.8c-0.4,0.35-9.63,8.32-26.89,14.14c0.29,5.21,0.72,19.71-1.97,37.58
		C188.71,123.02,187.61,123.94,186.36,123.94z"/>
	<path class="st12" d="M280.7,113.17h-37.78c-0.66,0-1.2-0.54-1.2-1.2s0.54-1.2,1.2-1.2h37.78c0.66,0,1.2,0.54,1.2,1.2
		S281.37,113.17,280.7,113.17z"/>
	<path class="st12" d="M247.91,70.01h-4.25c-0.66,0-1.2-0.54-1.2-1.2c0-0.66,0.54-1.2,1.2-1.2h4.25c0.66,0,1.2,0.54,1.2,1.2
		C249.11,69.47,248.57,70.01,247.91,70.01z"/>
	<path class="st3" d="M143.09,226.45c-29.99,0-58.21-11.64-79.48-32.79c-4.86-4.83-9.31-10.13-13.21-15.77
		c-1.62-2.34-1.04-5.55,1.3-7.17c2.34-1.62,5.55-1.04,7.17,1.3c3.55,5.12,7.59,9.94,12.01,14.33
		c19.32,19.21,44.97,29.79,72.21,29.79c2.85,0,5.16,2.31,5.16,5.16S145.94,226.45,143.09,226.45z"/>
	<path class="st7" d="M3.64,179.76l59.55-56.38c0,0,30.59-24.44,45.67-32.08s35.03-8.86,43.36-1.47
		c8.33,7.38,17.35,10.83,13.99,29.83c-3.36,19-10.53,30.82-15.28,35.37c-4.75,4.55-28.2,20.62-53.57,24.26s-62.67,3.52-71.06,3.53
		c-8.39,0.01-21.7-1.68-21.7-1.68L3.64,179.76z"/>
	<path class="st13" d="M119.86,129.35h-33c-0.66,0-1.2-0.54-1.2-1.2c0-0.66,0.54-1.2,1.2-1.2h33c16.93,0,32.85-6.59,44.83-18.57
		c0.47-0.47,1.23-0.47,1.7,0s0.47,1.23,0,1.7C153.96,122.51,137.44,129.35,119.86,129.35z"/>
	<path class="st13" d="M74.33,129.35H57.57c-0.66,0-1.2-0.54-1.2-1.2c0-0.66,0.54-1.2,1.2-1.2h16.75c0.66,0,1.2,0.54,1.2,1.2
		C75.53,128.82,74.99,129.35,74.33,129.35z"/>
	<path class="st13" d="M107.4,150.28H67.25c-0.66,0-1.2-0.54-1.2-1.2c0-0.66,0.54-1.2,1.2-1.2h40.15c21.45,0,41.61-8.35,56.78-23.52
		c0.47-0.47,1.23-0.47,1.7,0s0.47,1.23,0,1.7C150.26,141.68,129.49,150.28,107.4,150.28z"/>
	<path class="st13" d="M50.88,150.28H34.46c-0.66,0-1.2-0.54-1.2-1.2c0-0.66,0.54-1.2,1.2-1.2h16.41c0.66,0,1.2,0.54,1.2,1.2
		C52.08,149.74,51.54,150.28,50.88,150.28z"/>
	<path class="st13" d="M90.57,168.44H52.59c-0.66,0-1.2-0.54-1.2-1.2s0.54-1.2,1.2-1.2h37.97c26.99,0,52.49-10.01,69.94-27.46
		c0.47-0.47,1.23-0.47,1.7,0c0.47,0.47,0.47,1.23,0,1.7C144.31,158.18,118.19,168.44,90.57,168.44z"/>
	<path class="st13" d="M38.52,168.44H15.83c-0.66,0-1.2-0.54-1.2-1.2s0.54-1.2,1.2-1.2h22.69c0.66,0,1.2,0.54,1.2,1.2
		S39.18,168.44,38.52,168.44z"/>
	<path class="st3" d="M45.06,185.92c-23.33,0-41.09-2.25-42.82-2.48c-0.96-0.12-1.77-0.78-2.09-1.68c-0.33-0.91-0.12-1.92,0.54-2.63
		c3.7-3.96,90.97-96.9,129.56-96.9c13.26,0,23.41,3.63,30.16,10.8c9.16,9.72,8.52,22.29,8.49,22.82c0,17.33-6.45,31.85-19.17,43.01
		C124.24,181.21,78.82,185.92,45.06,185.92z M8.04,178.89c21.18,2.07,102.33,7.64,138.29-23.91c11.56-10.14,17.42-23.36,17.42-39.29
		c0.01-0.26,0.5-11.11-7.14-19.17c-5.74-6.06-14.61-9.13-26.36-9.13C98.07,87.39,25.05,161.22,8.04,178.89z"/>
</g>
</svg>
