<?xml version="1.0" encoding="utf-8"?>
<!-- Generator: Adobe Illustrator 24.0.0, SVG Export Plug-In . SVG Version: 6.00 Build 0)  -->
<svg version="1.1" id="Layer_1" xmlns="http://www.w3.org/2000/svg" xmlns:xlink="http://www.w3.org/1999/xlink" x="0px" y="0px"
	 viewBox="0 0 761.7 98.05" style="enable-background:new 0 0 761.7 98.05;" xml:space="preserve">
<style type="text/css">
	.st0{fill:#FFFFFF;}
	.st1{fill:#C5A56E;}
</style>
<g>
	<path class="st0" d="M0,15.54V1.06h40.71v14.48h-13.3v81.46H13.3V15.54H0z"/>
	<path class="st0" d="M92.24,55.22H81.26v41.77H67.18c0,0,0-95.31,0-95.94h14.08v39.66h10.99V1.06h14.08v95.94H92.24V55.22z"/>
	<path class="st0" d="M137.77,1.06h32.25v14.48h-18.17v25.18h13.08v15.42h-13.08v26.35h18.17v14.51h-32.25V1.06z"/>
	<path class="st1" d="M235.47,64.12v13.16c0,0,0.11,20.77-18.8,20.77c-18.94,0-18.8-20.77-18.8-20.77V20.74
		c0,0-0.14-20.74,18.8-20.74c18.91,0,18.8,20.74,18.8,20.74v13.22h-13.19V20.74c0,0,0.51-7.04-5.35-7.04
		c-4.95,0-4.95,7.04-4.95,7.04v56.54c0,0,0,7.04,4.95,7.04c5.87,0,5.35-7.04,5.35-7.04V64.12H235.47z"/>
	<path class="st1" d="M261.02,96.99L275.5,1.06h17.25l14.48,95.94h-13.71l-2.6-19.6h-13.59l-2.6,19.6H261.02z M284.92,32.25
		l-0.4-2.46h-0.77l-0.4,2.46l-4.03,30.27h9.64L284.92,32.25z"/>
	<path class="st1" d="M359.91,96.99l-7.3-40.49h-3.81v40.49h-14.08V1.06h14.08c16.71,0,24.03,9.64,24.03,27.67
		c0,9.53-2.49,18.14-7.84,21.77l9.01,46.49H359.91z M348.81,15.02v28.44c3.92,0,10.44-0.52,10.44-14.22S352.72,15.02,348.81,15.02z"
		/>
	<path class="st1" d="M413.93,96.99h-11.1V1.06h11.1c26.12,0.11,28.07,10.41,28.07,48.01C441.99,86.55,440.05,96.85,413.93,96.99z
		 M416.93,82.89c9.93,0,10.59-2.46,10.44-33.93c0.14-31.33-0.52-33.82-10.44-33.82V82.89z"/>
	<path class="st0" d="M467.4,15.54V1.06h40.71v14.48h-13.3v81.46h-14.11V15.54H467.4z"/>
	<path class="st0" d="M527.77,96.99l14.51-95.94h17.22l14.48,95.94h-13.7l-2.6-19.6h-13.56l-2.63,19.6H527.77z M551.66,32.25
		l-0.37-2.46h-0.8l-0.37,2.46l-4.06,30.27h9.67L551.66,32.25z"/>
	<path class="st0" d="M601.5,96.99V1.06c0,0,7.04,0,12.39,0c16.85,0,25.72,6.38,25.72,25.46c0,8.87-1.95,13.96-8.76,19.8
		c0,0,9.79,4.46,9.79,23.52c0,14.08-4.95,26.49-21.77,27.15H601.5z M615.58,15.02V40.6c2.63,0,10.44,0.4,10.44-12.79
		S618.21,15.02,615.58,15.02z M615.58,53.53v29.5c2.63,0,10.44,1.06,10.44-14.74C626.02,52.47,618.21,53.53,615.58,53.53z"/>
	<path class="st0" d="M670,1.06h14.08v82.86h18.68v13.08H670V1.06z"/>
	<path class="st0" d="M729.46,1.06h32.25v14.48h-18.14v25.18h13.05v15.42h-13.05v26.35h18.14v14.51h-32.25V1.06z"/>
</g>
</svg>
